<svg width="79" height="78" viewBox="0 0 79 78" fill="none" xmlns="http://www.w3.org/2000/svg">
<path d="M35.4545 71.5C33.3281 73.5995 30.4018 74.75 27.4821 74.75C24.6052 74.75 21.7349 73.6255 19.6611 71.578C15.4807 67.4505 15.3556 59.9982 19.5821 55.8285L35.4545 71.5ZM71.1987 0C69.1645 0 67.1237 0.77025 65.5601 2.31075L65.5535 2.3205C63.5654 4.28675 60.6819 5.06675 57.9827 4.35825C38.4664 -0.75725 21.7382 29.7733 4.62479 21.19L0 25.7595L52.9135 78L57.535 73.4305C48.8418 56.5402 79.7735 40.0205 74.5826 20.748C73.8683 18.0927 74.6583 15.236 76.6465 13.2795L76.653 13.2698C78.2166 11.7228 79 9.70775 79 7.69925C79 3.44175 75.5273 0 71.1987 0ZM59.747 43.6898C53.0781 53.3 50.7641 57.447 49.4112 65.3607L12.798 29.2045L14.5327 28.9185C21.8962 27.703 28.7264 23.0847 34.7567 19.0093C42.0379 14.0822 49.5791 8.86275 56.2974 10.6405C62.1993 12.1842 66.6562 16.5847 68.2264 22.4185C69.9874 28.951 65.0137 36.1107 59.747 43.6898ZM74.0757 10.088C72.6142 11.5278 70.2475 11.5245 68.786 10.0848C67.3278 8.645 67.3245 6.305 68.786 4.86525C70.2475 3.42225 72.6175 3.42225 74.0757 4.862C75.5339 6.30175 75.5339 8.64825 74.0757 10.088Z" fill="#8DA6FF"/>
</svg>
