<svg width="99" height="92" viewBox="0 0 99 92" fill="none" xmlns="http://www.w3.org/2000/svg">
<g clip-path="url(#clip0_4_88)">
<path d="M49.5 0C38.1068 0 28.875 8.579 28.875 19.1667C28.875 29.7543 38.1068 38.3333 49.5 38.3333C60.8932 38.3333 70.125 29.7543 70.125 19.1667C70.125 8.579 60.8932 0 49.5 0ZM50.5312 28.6503V30.6667H48.4688V28.7538C46.332 28.7193 44.1251 28.2478 42.2812 27.3623L43.2217 24.2113C45.1935 24.9243 47.817 25.6795 49.8713 25.2502C52.239 24.748 52.7257 22.4825 50.1064 21.3938C48.1883 20.562 42.3143 19.8528 42.3143 15.18C42.3143 12.5657 44.4593 10.2273 48.4688 9.71367V7.66667H50.5312V9.61783C52.0204 9.65617 53.6992 9.89767 55.5679 10.4228L54.8213 13.5815C53.2373 13.064 51.4883 12.5925 49.7805 12.6922C46.7115 12.857 46.4393 15.3295 48.5843 16.3645C52.1111 17.9055 56.7188 19.0478 56.7188 23.1572C56.727 26.45 53.9468 28.2018 50.5312 28.6503ZM49.5 53.6667C38.1068 53.6667 28.875 62.2457 28.875 72.8333C28.875 83.421 38.1068 92 49.5 92C60.8932 92 70.125 83.421 70.125 72.8333C70.125 62.2457 60.8932 53.6667 49.5 53.6667ZM49.5 88.1667C40.4044 88.1667 33 81.2858 33 72.8333C33 64.3808 40.4044 57.5 49.5 57.5C58.5998 57.5 66 64.3808 66 72.8333C66 81.2858 58.5998 88.1667 49.5 88.1667ZM89.0051 35.9835C94.0912 44.9995 95.3906 62.054 78.342 73.3815C78.4204 70.0005 77.8759 66.8418 76.5435 63.5222C85.2596 56.8368 85.0039 47.1768 81.4646 39.6252L71.6595 44.3632L78.243 24.4988L99 31.1573L89.0051 35.9835ZM9.99487 57.4923C4.90875 48.4763 3.97237 30.0993 21.0169 18.7718C20.9385 22.1528 21.4871 25.3153 22.8154 28.6312C14.0951 35.3203 13.992 46.299 17.5312 53.8545L27.3364 49.1165L20.7529 68.9808L0 62.3185L9.99487 57.4923ZM49.4959 84.3333V81.4353H48.4729V84.3333H46.4021V81.4353H41.2789L41.8027 78.5833H42.9165C43.8199 78.5833 44.3479 77.7668 44.3479 76.9465V68.4288C44.3479 67.6315 43.8446 67.0833 42.9412 67.0833H41.25V64.2083H46.4021V61.3333H48.4729V64.2083H49.4959V61.3333H51.5666V64.2582C56.0134 64.4 57.7789 65.964 58.2863 67.735C58.8761 69.8242 57.3952 71.576 56.1206 72.0053C57.6675 72.3733 59.8166 73.4352 59.8166 75.8885C59.8166 79.2273 57.0405 81.4622 51.5708 81.4622V84.3333H49.4959ZM48.4729 73.7878V78.5833C52.5608 78.5833 55.3657 78.223 55.3657 76.1722C55.3657 73.968 52.338 73.7878 48.4729 73.7878ZM48.4729 71.875C50.7499 71.875 54.2272 71.7217 54.2272 69.4753C54.2272 67.5625 52.0781 67.0795 48.4729 67.0795V71.875Z" fill="#8DA6FF"/>
</g>
<defs>
<clipPath id="clip0_4_88">
<rect width="99" height="92" fill="white"/>
</clipPath>
</defs>
</svg>
