<svg width="70" height="93" viewBox="0 0 70 93" fill="none" xmlns="http://www.w3.org/2000/svg">
<g id="Group 11">
<path id="Path" fill-rule="evenodd" clip-rule="evenodd" d="M43.703 37.5456L31.4725 50.5927L22.4743 40.9938L17.9753 45.7932L31.4725 60.1915L52.079 38.2103L47.5789 33.4109L43.703 37.5456Z" stroke="#8DA6FF" stroke-width="3.06383"/>
<path id="Path_2" fill-rule="evenodd" clip-rule="evenodd" d="M56.9164 10.7158C51.5736 10.7158 46.263 9.52794 41.4342 7.07226C39.1215 5.90724 36.7553 4.42241 34.7102 2.57208C32.6652 4.42241 30.299 5.90724 27.9852 7.07226C23.1574 9.52794 17.8468 10.7158 12.5041 10.7158H1.91489V53.1706C1.91489 60.6061 4.73082 67.7562 9.74059 72.9314C17.0973 80.5143 34.7102 90.3713 34.7102 90.3713C34.7102 90.3713 52.3231 80.5143 59.6788 72.9314C64.6896 67.7562 67.5056 60.6061 67.5056 53.1706V10.7158H56.9164Z" stroke="#8DA6FF" stroke-width="3.06383"/>
<path id="Path_3" fill-rule="evenodd" clip-rule="evenodd" d="M58.94 26.0724V53.5269C58.94 58.4874 57.0374 63.2971 53.7215 66.7214C49.1089 71.4774 38.5936 77.9855 34.7113 80.3179C30.8247 77.9833 20.3008 71.4671 15.6936 66.718C12.3798 63.2948 10.4804 58.4874 10.4804 53.5269V20.2096H12.504C19.2109 20.2096 25.8385 18.6426 31.6705 15.6775C32.7166 15.1509 33.738 14.5855 34.7113 13.9939C35.6835 14.5844 36.7114 15.1543 37.7745 15.6912C43.5895 18.6471 50.2085 20.2096 56.9164 20.2096H58.94V26.0724Z" stroke="#8DA6FF" stroke-width="3.06383"/>
</g>
</svg>
