<svg width="83" height="78" viewBox="0 0 83 78" fill="none" xmlns="http://www.w3.org/2000/svg">
<path fill-rule="evenodd" clip-rule="evenodd" d="M2.47572 53.4659H73.5934V45.4827H2.47572V53.4659ZM51.7129 65.443H55.6563V68.9719H20.4128V65.443H24.3551C25.0105 65.443 25.5404 64.914 25.5404 64.2596V55.8326H50.5276V64.2596C50.5276 64.914 51.0586 65.443 51.7129 65.443ZM2.47572 43.1159H73.5934V2.95145H2.47572V43.1159ZM1.29043 0.584656C0.63496 0.584656 0.105133 1.11363 0.105133 1.76805V54.6493C0.105133 55.3037 0.63496 55.8326 1.29043 55.8326H23.1698V63.0762H19.2275C18.572 63.0762 18.0422 63.6076 18.0422 64.2596V70.1553C18.0422 70.8073 18.572 71.3387 19.2275 71.3387H56.8416C57.4959 71.3387 58.0269 70.8073 58.0269 70.1553V64.2596C58.0269 63.6076 57.4959 63.0762 56.8416 63.0762H52.8982V55.8326H74.7787C75.433 55.8326 75.964 55.3037 75.964 54.6493V1.76805C75.964 1.11363 75.433 0.584656 74.7787 0.584656H1.29043Z" fill="#8DA6FF"/>
<path fill-rule="evenodd" clip-rule="evenodd" d="M36.4119 47.9205C35.7579 47.9205 35.2266 48.4509 35.2266 49.1039C35.2266 49.7568 35.7579 50.2873 36.4119 50.2873C37.0659 50.2873 37.5972 49.7568 37.5972 49.1039C37.5972 48.4509 37.0659 47.9205 36.4119 47.9205Z" fill="#8DA6FF"/>
<rect x="56.1972" y="23.8897" width="25.6206" height="52.795" rx="1.64118" fill="#181F2B" stroke="#8DA6FF" stroke-width="1.64118"/>
<rect x="55.6725" y="29.282" width="26.6701" height="0.591698" fill="white" stroke="#8DA6FF" stroke-width="0.591698"/>
<rect x="55.6725" y="67.1506" width="26.6701" height="0.591698" fill="white" stroke="#8DA6FF" stroke-width="0.591698"/>
<ellipse cx="68.4148" cy="71.5884" rx="1.18529" ry="1.1834" stroke="#8DA6FF" stroke-width="1.00971"/>
</svg>
