<svg width="212" height="201" viewBox="0 0 212 201" fill="none" xmlns="http://www.w3.org/2000/svg">
<path d="M82.901 102.1L69.2592 116.293C66.834 118.816 65.5348 122.15 65.5348 125.709C65.5348 129.269 66.8773 132.603 69.2592 135.126L71.9009 137.875L70.2986 139.542C65.4915 144.543 57.6528 144.543 52.8024 139.542L39.2039 125.394C30.2393 116.067 15.6881 116.067 6.72346 125.394C-2.24115 134.721 -2.24115 149.86 6.72346 159.187L20.3219 173.38C22.6605 175.813 23.9598 179.057 23.9598 182.482C23.9598 185.906 22.6605 189.15 20.3219 191.583C18.2432 193.746 18.2432 197.215 20.3219 199.378C21.3613 200.459 22.7038 201 24.0897 201C25.4322 201 26.818 200.459 27.8574 199.378C32.1881 194.872 34.57 188.88 34.57 182.482C34.57 176.083 32.1881 170.091 27.8574 165.585L14.2589 151.392C9.45182 146.391 9.45182 138.235 14.2589 133.189C19.066 128.143 26.9046 128.188 31.7551 133.189L45.3536 147.292C54.3182 156.619 68.8694 156.619 77.834 147.292L79.4364 145.625L82.0781 148.373C84.59 150.987 87.838 152.248 91.1294 152.248C94.4207 152.248 97.6688 150.941 100.181 148.373L113.822 134.18C118.759 135.847 123.87 136.748 128.98 136.748C141.409 136.748 153.838 131.837 163.279 122.015L187.142 97.1883L191.429 101.649C192.468 102.73 193.811 103.271 195.197 103.271C196.583 103.271 197.925 102.73 198.965 101.649C201.043 99.4862 201.043 96.0168 198.965 93.8541L181.425 75.6059L210.441 45.4176C212.52 43.2549 212.52 39.7855 210.441 37.6227C208.362 35.46 205.028 35.46 202.949 37.6227L173.933 67.811L146.779 39.6052L175.795 9.41695C177.874 7.2542 177.874 3.7848 175.795 1.62206C173.716 -0.540686 170.382 -0.540686 168.303 1.62206L139.287 31.8104L121.748 13.5622C119.669 11.3995 116.334 11.3995 114.255 13.5622C112.177 15.725 112.177 19.1944 114.255 21.3571L118.543 25.8178L94.6806 50.6443C81.2986 64.5669 77.401 84.5723 82.901 102.1ZM102.129 114.22C87.3616 98.8554 87.3616 73.8487 102.129 58.4842L125.992 33.6577L179.606 89.3484L155.744 114.175C140.933 129.584 116.897 129.584 102.129 114.22ZM87.6648 112.778C89.6136 116.067 91.9089 119.176 94.6373 122.015C97.3656 124.853 100.354 127.241 103.515 129.269L92.6018 140.623C91.779 141.525 90.3931 141.525 89.527 140.623L76.7513 127.332C76.1883 126.746 76.1017 126.07 76.1017 125.755C76.1017 125.394 76.1883 124.718 76.7513 124.178L87.6648 112.778Z" fill="#8DA6FF"/>
</svg>
