<svg width="74" height="79" viewBox="0 0 74 79" fill="none" xmlns="http://www.w3.org/2000/svg">
<g clip-path="url(#clip0_16_3)">
<path fill-rule="evenodd" clip-rule="evenodd" d="M37 59.0031L33.9907 65.6325L27.1549 66.6365L32.1345 71.7452L30.9166 79L37 75.5207L43.0834 78.9967L41.8717 71.7452L46.8451 66.6365L40.0093 65.6325L37 59.0031V59.0031ZM12.9284 59.0031L9.91909 65.6325L3.08334 66.6365L8.06293 71.7452L6.84501 79L12.9284 75.5207L19.0118 78.9967L17.8001 71.7452L22.7735 66.6365L15.9378 65.6325L12.9284 59.0031V59.0031ZM61.0716 59.0031L58.0623 65.6325L51.2265 66.6365L56.2061 71.7452L54.9882 79L61.0716 75.5207L67.155 78.9967L65.9433 71.7452L70.9167 66.6365L64.0809 65.6325L61.0716 59.0031V59.0031ZM35.4583 70.5898L33.8797 68.9736L36.0442 68.6543L37 66.5509L37.9558 68.6543L40.1234 68.9736L38.5478 70.5898L38.9333 72.8907L37 71.788L35.0729 72.8874L35.4583 70.5898ZM11.3868 70.5898L9.80809 68.9736L11.9726 68.6543L12.9284 66.5509L13.8843 68.6543L16.0518 68.9736L14.4763 70.5898L14.8617 72.8907L12.9284 71.788L11.0013 72.8874L11.3868 70.5898ZM59.5299 70.5898L57.9513 68.9736L60.1158 68.6543L61.0716 66.5509L62.0274 68.6543L64.195 68.9736L62.6194 70.5898L63.0048 72.8907L61.0716 71.788L59.1445 72.8874L59.5299 70.5898V70.5898ZM64.75 55.9583H9.25926L9.25001 52.1334C9.22226 44.082 10.397 41.3598 18.3088 39.4342C26.5136 37.4559 29.8374 36.159 27.9473 32.446C22.6502 22.0443 21.6481 12.8935 25.123 6.67879C27.4941 2.43254 31.8293 0 37 0C42.1368 0 46.435 2.39962 48.803 6.58004C52.2748 12.719 51.3036 21.8995 46.0588 32.4328C44.1102 36.363 47.9736 37.5678 55.7991 39.4605C63.5444 41.3466 64.7808 44.0886 64.75 52.1927V55.9583V55.9583ZM12.3457 52.6667H61.6543C61.6944 46.1985 61.8733 44.319 55.1146 42.6699C49.617 41.34 44.4308 40.0826 42.8614 36.4486C42.1553 34.8061 42.3126 32.9364 43.327 30.8923C48.0414 21.4189 49.0435 13.3905 46.1544 8.27854C44.3353 5.06258 41.0823 3.29167 37 3.29167C32.8868 3.29167 29.6093 5.09221 27.7808 8.36412C24.8825 13.5386 25.9093 21.5341 30.6668 30.8791C31.7028 32.9167 31.8755 34.7863 31.1756 36.4322C29.6185 40.0793 24.2165 41.3861 18.9903 42.6468C12.2963 44.2762 12.3087 45.7706 12.3457 52.6667V52.6667Z" fill="#8DA6FF"/>
</g>
<defs>
<clipPath id="clip0_16_3">
<rect width="74" height="79" fill="white"/>
</clipPath>
</defs>
</svg>
